<svg width="65" height="65" viewBox="0 0 65 65" fill="none" xmlns="http://www.w3.org/2000/svg">
<path d="M18.4898 16.724C18.0023 17.4957 17.3518 18.1513 16.584 18.6449C15.8163 19.1385 14.9498 19.4581 14.0454 19.5813C13.0162 19.7276 11.9952 19.8847 10.9742 20.0553C8.12229 20.5292 6.09375 23.0399 6.09375 25.9297V48.7501C6.09375 50.3662 6.73577 51.9162 7.87857 53.059C9.02137 54.2018 10.5713 54.8438 12.1875 54.8438H52.8125C54.4287 54.8438 55.9786 54.2018 57.1214 53.059C58.2642 51.9162 58.9062 50.3662 58.9062 48.7501V25.9297C58.9062 23.0399 56.875 20.5292 54.0258 20.0553C53.004 19.885 51.9802 19.727 50.9546 19.5813C50.0507 19.4577 49.1847 19.1379 48.4175 18.6443C47.6502 18.1508 47.0002 17.4953 46.5129 16.724L44.2867 13.1599C43.7867 12.3476 43.0983 11.6678 42.2799 11.178C41.4615 10.6882 40.5371 10.4028 39.585 10.3459C34.8651 10.0924 30.1349 10.0924 25.415 10.3459C24.4629 10.4028 23.5385 10.6882 22.7201 11.178C21.9017 11.6678 21.2133 12.3476 20.7133 13.1599L18.4898 16.724Z" stroke="#4E5A66" stroke-width="4" stroke-linecap="round" stroke-linejoin="round"/>
<path d="M44.6875 34.5312C44.6875 37.7636 43.4035 40.8635 41.1179 43.1491C38.8323 45.4347 35.7323 46.7187 32.5 46.7187C29.2677 46.7187 26.1677 45.4347 23.8821 43.1491C21.5965 40.8635 20.3125 37.7636 20.3125 34.5312C20.3125 31.2989 21.5965 28.199 23.8821 25.9134C26.1677 23.6278 29.2677 22.3438 32.5 22.3438C35.7323 22.3438 38.8323 23.6278 41.1179 25.9134C43.4035 28.199 44.6875 31.2989 44.6875 34.5312ZM50.7813 28.4375H50.8029V28.4592H50.7813V28.4375Z" stroke="#4E5A66" stroke-width="4" stroke-linecap="round" stroke-linejoin="round"/>
</svg>
