<svg width="25" height="18" viewBox="0 0 25 18" fill="none" xmlns="http://www.w3.org/2000/svg">
<path fill-rule="evenodd" clip-rule="evenodd" d="M5.15835 0.669626C5.32221 0.825258 5.41425 1.03622 5.41425 1.25618C5.41425 1.47614 5.32221 1.68711 5.15835 1.84274C4.18315 2.76767 3.40957 3.86578 2.88178 5.07434C2.354 6.2829 2.08235 7.57825 2.08235 8.88642C2.08235 10.1946 2.354 11.4899 2.88178 12.6985C3.40957 13.9071 4.18315 15.0052 5.15835 15.9301C5.31291 16.0874 5.39706 16.2956 5.39306 16.5106C5.38906 16.7256 5.29723 16.9308 5.13691 17.0829C4.9766 17.2349 4.76031 17.3221 4.53363 17.3259C4.30695 17.3296 4.08756 17.2498 3.92169 17.1032C-0.862812 12.5657 -0.862812 5.20826 3.92169 0.669626C4.08575 0.514188 4.30814 0.42688 4.54002 0.42688C4.7719 0.42688 4.99429 0.514188 5.15835 0.669626ZM20.0077 0.669626C20.1718 0.514188 20.3941 0.42688 20.626 0.42688C20.8579 0.42688 21.0803 0.514188 21.2444 0.669626C26.0289 5.20715 26.0289 12.5657 21.2444 17.1043C21.1636 17.1836 21.067 17.2467 20.9602 17.2902C20.8535 17.3336 20.7386 17.3565 20.6225 17.3574C20.5063 17.3583 20.3911 17.3373 20.2836 17.2955C20.176 17.2537 20.0784 17.192 19.9963 17.114C19.9141 17.0361 19.8492 16.9434 19.8053 16.8413C19.7613 16.7393 19.7392 16.63 19.7403 16.5198C19.7414 16.4096 19.7656 16.3007 19.8115 16.1994C19.8574 16.0982 19.9241 16.0066 20.0077 15.9301C20.9827 15.0052 21.7562 13.9071 22.2838 12.6987C22.8115 11.4902 23.0831 10.195 23.0831 8.88697C23.0831 7.57894 22.8115 6.28372 22.2838 5.07526C21.7562 3.86679 20.9827 2.76876 20.0077 1.84385C19.8438 1.68822 19.7518 1.47725 19.7518 1.25729C19.7518 1.03733 19.8438 0.825258 20.0077 0.669626ZM7.63285 3.01696C7.71416 3.09405 7.77867 3.18557 7.82267 3.28631C7.86668 3.38705 7.88933 3.49503 7.88933 3.60408C7.88933 3.71312 7.86668 3.8211 7.82267 3.92184C7.77867 4.02258 7.71416 4.1141 7.63285 4.19119C6.3202 5.43647 5.58277 7.12538 5.58277 8.88642C5.58277 10.6475 6.3202 12.3364 7.63285 13.5816C7.79232 13.7381 7.88062 13.9478 7.87874 14.1654C7.87685 14.383 7.78493 14.5912 7.62278 14.7452C7.46062 14.8992 7.2412 14.9866 7.01178 14.9886C6.78236 14.9906 6.56129 14.907 6.39619 14.7559C5.58361 13.9851 4.93903 13.0701 4.49926 12.063C4.05949 11.0559 3.83314 9.97649 3.83314 8.88642C3.83314 7.79635 4.05949 6.71695 4.49926 5.70987C4.93903 4.70278 5.58361 3.78773 6.39619 3.01696C6.56025 2.86153 6.78264 2.77422 7.01452 2.77422C7.2464 2.77422 7.46879 2.86153 7.63285 3.01696ZM17.5332 3.01696C17.6972 2.86153 17.9196 2.77422 18.1515 2.77422C18.3834 2.77422 18.6058 2.86153 18.7699 3.01696C19.5824 3.78773 20.227 4.70278 20.6668 5.70987C21.1066 6.71695 21.3329 7.79635 21.3329 8.88642C21.3329 9.97649 21.1066 11.0559 20.6668 12.063C20.227 13.0701 19.5824 13.9851 18.7699 14.7559C18.604 14.9025 18.3846 14.9823 18.1579 14.9785C17.9312 14.9747 17.7149 14.8876 17.5546 14.7355C17.3943 14.5835 17.3025 14.3783 17.2985 14.1632C17.2945 13.9482 17.3786 13.7401 17.5332 13.5828C18.1833 12.9661 18.699 12.2341 19.0509 11.4284C19.4028 10.6226 19.5839 9.75908 19.5839 8.88697C19.5839 8.01486 19.4028 7.1513 19.0509 6.34559C18.699 5.53988 18.1833 4.80781 17.5332 4.19119C17.3693 4.03555 17.2773 3.82459 17.2773 3.60463C17.2773 3.38467 17.3693 3.1726 17.5332 3.01696ZM10.1085 5.36541C10.2724 5.52104 10.3644 5.73201 10.3644 5.95197C10.3644 6.17193 10.2724 6.38289 10.1085 6.53853C9.78345 6.84684 9.52559 7.21287 9.34966 7.61573C9.17373 8.01858 9.08319 8.45036 9.08319 8.88642C9.08319 9.32247 9.17373 9.75425 9.34966 10.1571C9.52559 10.56 9.78345 10.926 10.1085 11.2343C10.1921 11.3109 10.2587 11.4025 10.3045 11.5038C10.3503 11.6051 10.3744 11.714 10.3753 11.8242C10.3763 11.9345 10.3541 12.0437 10.31 12.1457C10.266 12.2477 10.201 12.3404 10.1188 12.4183C10.0366 12.4962 9.93885 12.5578 9.8313 12.5994C9.72374 12.6411 9.60851 12.6621 9.49233 12.6611C9.37615 12.6601 9.26135 12.6371 9.15462 12.5936C9.04788 12.55 8.95136 12.4867 8.87069 12.4074C7.88646 11.4735 7.33356 10.207 7.33356 8.88642C7.33356 7.56584 7.88646 6.29934 8.87069 5.36541C9.03475 5.20997 9.25714 5.12266 9.48902 5.12266C9.7209 5.12266 9.94446 5.20997 10.1085 5.36541ZM15.0575 5.36541C15.1388 5.28828 15.2353 5.22709 15.3415 5.18534C15.4477 5.1436 15.5615 5.12211 15.6764 5.12211C15.7914 5.12211 15.9052 5.1436 16.0114 5.18534C16.1176 5.22709 16.2141 5.28828 16.2954 5.36541C16.7829 5.82787 17.1696 6.37688 17.4334 6.98111C17.6973 7.58534 17.8331 8.23295 17.8331 8.88697C17.8331 9.54099 17.6973 10.1886 17.4334 10.7928C17.1696 11.3971 16.7829 11.9461 16.2954 12.4085C16.1295 12.5551 15.9101 12.635 15.6834 12.6312C15.4567 12.6274 15.2404 12.5403 15.0801 12.3882C14.9198 12.2361 14.828 12.0309 14.824 11.8159C14.82 11.6009 14.9041 11.3928 15.0587 11.2354C15.3839 10.9271 15.6419 10.561 15.818 10.158C15.994 9.75507 16.0846 9.32316 16.0846 8.88697C16.0846 8.45078 15.994 8.01887 15.818 7.61592C15.6419 7.21296 15.3839 6.84686 15.0587 6.53853C14.8948 6.38289 14.8028 6.17193 14.8028 5.95197C14.8028 5.73201 14.8937 5.52104 15.0575 5.36541ZM11.2705 8.88697C11.2705 8.55676 11.4088 8.24008 11.6549 8.00659C11.9011 7.77309 12.2349 7.64192 12.583 7.64192C12.9311 7.64192 13.265 7.77309 13.5111 8.00659C13.7572 8.24008 13.8955 8.55676 13.8955 8.88697C13.8955 9.21718 13.7572 9.53386 13.5111 9.76735C13.265 10.0008 12.9311 10.132 12.583 10.132C12.2349 10.132 11.9011 10.0008 11.6549 9.76735C11.4088 9.53386 11.2705 9.21718 11.2705 8.88697Z" fill="white"/>
</svg>
