<svg width="24" height="24" viewBox="0 0 24 24" fill="none" xmlns="http://www.w3.org/2000/svg">
<path d="M10.8333 4.86233V20.4467C10.833 20.9302 10.662 21.3981 10.3505 21.768C10.039 22.1378 9.60697 22.3859 9.13052 22.4684C8.65408 22.5509 8.16378 22.4627 7.74602 22.2192C7.32825 21.9757 7.00983 21.5926 6.84684 21.1373L4.342 13.9623M4.342 13.9623C3.35176 13.5413 2.53739 12.7922 2.0367 11.8398C1.53602 10.8873 1.37978 9.79113 1.59443 8.73672C1.80907 7.6823 2.38141 6.73443 3.2146 6.0535C4.04778 5.37257 5.09063 5.00041 6.16667 5H8.304C13.0873 5 17.1998 3.56033 19 1.5V17.8333C17.1998 15.773 13.0885 14.3333 8.304 14.3333H6.16667C5.53974 14.3342 4.9191 14.2073 4.342 13.9623ZM19 13.1667C19.9283 13.1667 20.8185 12.7979 21.4749 12.1415C22.1313 11.4852 22.5 10.5949 22.5 9.66667C22.5 8.73841 22.1313 7.84817 21.4749 7.19179C20.8185 6.53542 19.9283 6.16667 19 6.16667" stroke="white" stroke-width="2.5" stroke-linecap="round" stroke-linejoin="round"/>
</svg>
