<svg width="22" height="20" viewBox="0 0 22 20" fill="none" xmlns="http://www.w3.org/2000/svg">
<path d="M1.99999 7.2636V7.2501C1.99997 5.91669 2.39488 4.61314 3.13489 3.50392C3.8749 2.3947 4.92686 1.5295 6.15805 1.01748C7.38924 0.505462 8.74449 0.369563 10.0528 0.626929C11.3612 0.884295 12.564 1.5234 13.5095 2.4636C14.2534 2.09642 15.0844 1.94203 15.9106 2.01751C16.7367 2.09299 17.526 2.39538 18.191 2.89129C18.8561 3.38719 19.3712 4.0573 19.6793 4.82758C19.9874 5.59785 20.0766 6.43831 19.937 7.2561C20.1422 7.27515 20.3414 7.3363 20.5219 7.43573C20.7025 7.53517 20.8606 7.67075 20.9865 7.83402C21.1123 7.9973 21.2031 8.18475 21.2533 8.38469C21.3034 8.58463 21.3119 8.79276 21.278 8.9961C20.6 13.0746 18.923 15.6561 16.25 16.7421V17.7501C16.25 18.3468 16.0129 18.9191 15.591 19.3411C15.169 19.763 14.5967 20.0001 14 20.0001H7.99999C7.40325 20.0001 6.83096 19.763 6.409 19.3411C5.98704 18.9191 5.74999 18.3468 5.74999 17.7501V16.7421C3.07699 15.6561 1.39999 13.0746 0.72199 8.9961C0.689269 8.79817 0.696586 8.59568 0.743507 8.40062C0.790429 8.20557 0.876002 8.02191 0.995162 7.86051C1.11432 7.69911 1.26465 7.56325 1.43724 7.46098C1.60984 7.35871 1.8012 7.2921 1.99999 7.2651V7.2636ZM3.49999 7.2501H4.99999C4.99999 6.25554 5.39508 5.30171 6.09834 4.59845C6.8016 3.89519 7.75543 3.5001 8.74999 3.5001C9.74455 3.5001 10.6984 3.89519 11.4016 4.59845C12.1049 5.30171 12.5 6.25554 12.5 7.2501H14C14 5.85771 13.4469 4.52235 12.4623 3.53779C11.4777 2.55322 10.1424 2.0001 8.74999 2.0001C7.3576 2.0001 6.02225 2.55322 5.03768 3.53779C4.05311 4.52235 3.49999 5.85771 3.49999 7.2501ZM6.49999 7.2501H11C11 6.65336 10.7629 6.08107 10.341 5.65911C9.91902 5.23715 9.34673 5.0001 8.74999 5.0001C8.15325 5.0001 7.58096 5.23715 7.159 5.65911C6.73704 6.08107 6.49999 6.65336 6.49999 7.2501ZM16.799 7.2501H18.4055C18.5187 6.80681 18.5293 6.34351 18.4364 5.89552C18.3434 5.44753 18.1495 5.02667 17.8692 4.665C17.589 4.30333 17.2299 4.01039 16.8193 3.80852C16.4088 3.60665 15.9575 3.50116 15.5 3.5001C15.14 3.5001 14.798 3.5631 14.48 3.6786C14.7455 4.1046 14.9645 4.5636 15.1325 5.0451C15.4182 4.97424 15.7184 4.98883 15.9959 5.08706C16.2734 5.18529 16.5159 5.36284 16.6934 5.59767C16.8709 5.8325 16.9755 6.11427 16.9942 6.40803C17.013 6.70178 16.9451 6.99458 16.799 7.2501ZM14.75 17.0001H7.24999V17.7501C7.24999 17.949 7.32901 18.1398 7.46966 18.2804C7.61031 18.4211 7.80108 18.5001 7.99999 18.5001H14C14.1989 18.5001 14.3897 18.4211 14.5303 18.2804C14.671 18.1398 14.75 17.949 14.75 17.7501V17.0001ZM6.72199 15.5001H15.278C17.657 14.7351 19.163 12.5721 19.799 8.7501H2.20099C2.83699 12.5721 4.34299 14.7351 6.72199 15.5001Z" fill="CURRENTCOLOR"/>
</svg>
