<svg width="18" height="18" viewBox="0 0 18 18" fill="none" xmlns="http://www.w3.org/2000/svg">
<path d="M11.5 15.7982L16.835 10.4632C16.9283 10.3699 17.043 10.3199 17.179 10.3132C17.315 10.3066 17.436 10.3566 17.542 10.4632C17.6487 10.5699 17.702 10.6879 17.702 10.8172C17.702 10.9472 17.6487 11.0652 17.542 11.1712L12.065 16.6482C11.9037 16.8096 11.7153 16.8902 11.5 16.8902C11.2847 16.8902 11.0963 16.8096 10.935 16.6482L8.296 14.0102C8.20267 13.9169 8.15267 13.8019 8.146 13.6652C8.13933 13.5299 8.18933 13.4089 8.296 13.3022C8.40267 13.1956 8.52067 13.1422 8.65 13.1422C8.77933 13.1422 8.89733 13.1956 9.004 13.3022L11.5 15.7982ZM1.615 18.0002C1.171 18.0002 0.791 17.8419 0.475 17.5252C0.158333 17.2092 0 16.8292 0 16.3852V3.61523C0 3.17123 0.158333 2.79123 0.475 2.47523C0.791 2.15857 1.171 2.00023 1.615 2.00023H6.252C6.34533 1.6089 6.553 1.28023 6.875 1.01423C7.197 0.748234 7.572 0.615234 8 0.615234C8.436 0.615234 8.814 0.748568 9.134 1.01523C9.454 1.28057 9.66067 1.6089 9.754 2.00023H14.384C14.8287 2.00023 15.209 2.15857 15.525 2.47523C15.8417 2.79123 16 3.17123 16 3.61523V7.50023C16 7.64223 15.952 7.7609 15.856 7.85623C15.76 7.95223 15.641 8.00023 15.499 8.00023C15.3577 8.00023 15.239 7.95223 15.143 7.85623C15.0477 7.7609 15 7.64223 15 7.50023V3.61523C15 3.4619 14.936 3.3209 14.808 3.19223C14.6793 3.06423 14.5383 3.00023 14.385 3.00023H12V4.42323C12 4.6519 11.9233 4.8439 11.77 4.99923C11.6167 5.1539 11.4267 5.23123 11.2 5.23123H4.8C4.57333 5.23123 4.38333 5.1539 4.23 4.99923C4.07667 4.8439 4 4.6519 4 4.42323V3.00023H1.615C1.46167 3.00023 1.32067 3.06423 1.192 3.19223C1.064 3.3209 1 3.4619 1 3.61523V16.3852C1 16.5386 1.064 16.6796 1.192 16.8082C1.32067 16.9362 1.46167 17.0002 1.615 17.0002H6.5C6.642 17.0002 6.76067 17.0482 6.856 17.1442C6.95133 17.2402 6.99933 17.3589 7 17.5002C7 17.6416 6.952 17.7602 6.856 17.8562C6.76067 17.9516 6.642 17.9992 6.5 17.9992L1.615 18.0002ZM8.003 3.23023C8.233 3.23023 8.42467 3.1529 8.578 2.99823C8.73133 2.84223 8.808 2.64957 8.808 2.42023C8.808 2.19023 8.73033 1.99857 8.575 1.84523C8.419 1.6919 8.22633 1.61523 7.997 1.61523C7.767 1.61523 7.57533 1.69323 7.422 1.84923C7.26867 2.00457 7.192 2.1969 7.192 2.42623C7.192 2.65623 7.27 2.8479 7.426 3.00123C7.58133 3.15457 7.77367 3.23023 8.003 3.23023Z" fill="CURRENTCOLOR"/>
</svg>
