<svg width="26" height="25" viewBox="0 0 26 25" fill="none" xmlns="http://www.w3.org/2000/svg">
<path d="M17.0625 6.11766C17.0625 7.13172 16.6345 8.10425 15.8726 8.8213C15.1108 9.53835 14.0775 9.94119 13 9.94119C11.9226 9.94119 10.8893 9.53835 10.1274 8.8213C9.36553 8.10425 8.93752 7.13172 8.93752 6.11766C8.93752 5.10359 9.36553 4.13107 10.1274 3.41401C10.8893 2.69696 11.9226 2.29413 13 2.29413C14.0775 2.29413 15.1108 2.69696 15.8726 3.41401C16.6345 4.13107 17.0625 5.10359 17.0625 6.11766ZM4.8761 20.5125C4.91091 18.5063 5.78213 16.5933 7.30187 15.1861C8.82162 13.7789 10.8681 12.9903 13 12.9903C15.1319 12.9903 17.1784 13.7789 18.6982 15.1861C20.2179 16.5933 21.0891 18.5063 21.1239 20.5125C18.5753 21.6124 15.8038 22.1801 13 22.1765C10.101 22.1765 7.34935 21.581 4.8761 20.5125Z" stroke="white" stroke-width="2.5" stroke-linecap="round" stroke-linejoin="round"/>
</svg>
