<svg width="18" height="21" viewBox="0 0 18 21" fill="none" xmlns="http://www.w3.org/2000/svg">
<path d="M12.75 4.8529C12.75 5.78896 12.3549 6.68668 11.6516 7.34857C10.9484 8.01046 9.99454 8.38231 8.99998 8.38231C8.00542 8.38231 7.05159 8.01046 6.34833 7.34857C5.64507 6.68668 5.24998 5.78896 5.24998 4.8529C5.24998 3.91684 5.64507 3.01912 6.34833 2.35723C7.05159 1.69533 8.00542 1.32349 8.99998 1.32349C9.99454 1.32349 10.9484 1.69533 11.6516 2.35723C12.3549 3.01912 12.75 3.91684 12.75 4.8529ZM1.50098 18.1404C1.53311 16.2885 2.33731 14.5227 3.74015 13.2238C5.14299 11.9248 7.03207 11.1969 8.99998 11.1969C10.9679 11.1969 12.857 11.9248 14.2598 13.2238C15.6626 14.5227 16.4668 16.2885 16.499 18.1404C14.1464 19.1557 11.5881 19.6797 8.99998 19.6764C6.32398 19.6764 3.78398 19.1268 1.50098 18.1404Z" stroke="CURRENTCOLOR" stroke-width="2.5" stroke-linecap="round" stroke-linejoin="round"/>
</svg>
